<mxfile host="Electron" agent="Mozilla/5.0 (Macintosh; Intel Mac OS X 10_15_7) AppleWebKit/537.36 (KHTML, like Gecko) draw.io/24.7.8 Chrome/128.0.6613.36 Electron/32.0.1 Safari/537.36" version="24.7.8" pages="2">
  <diagram id="0s85d6XQ3hucB6xodaO3" name="soc_mgmt_fabric">
    <mxGraphModel dx="1308" dy="1164" grid="1" gridSize="10" guides="1" tooltips="1" connect="1" arrows="1" fold="1" page="1" pageScale="1" pageWidth="850" pageHeight="1100" math="0" shadow="0">
      <root>
        <mxCell id="0" />
        <mxCell id="1" parent="0" />
        <mxCell id="CFuLUNAaXIAf-ssiRvlZ-32" value="SocMgmt" style="rounded=0;whiteSpace=wrap;html=1;dashed=1;dashPattern=8 8;verticalAlign=top;align=left;fontStyle=3" parent="1" vertex="1">
          <mxGeometry x="240" y="70" width="550" height="570" as="geometry" />
        </mxCell>
        <mxCell id="CFuLUNAaXIAf-ssiRvlZ-6" value="AXI" style="edgeStyle=orthogonalEdgeStyle;rounded=0;orthogonalLoop=1;jettySize=auto;html=1;exitX=1.005;exitY=0.792;exitDx=0;exitDy=0;entryX=0;entryY=0.5;entryDx=0;entryDy=0;exitPerimeter=0;" parent="1" source="CFuLUNAaXIAf-ssiRvlZ-2" target="CFuLUNAaXIAf-ssiRvlZ-5" edge="1">
          <mxGeometry relative="1" as="geometry" />
        </mxCell>
        <mxCell id="CFuLUNAaXIAf-ssiRvlZ-20" style="edgeStyle=orthogonalEdgeStyle;rounded=0;orthogonalLoop=1;jettySize=auto;html=1;exitX=1.017;exitY=0.056;exitDx=0;exitDy=0;entryX=0;entryY=0.5;entryDx=0;entryDy=0;exitPerimeter=0;" parent="1" source="CFuLUNAaXIAf-ssiRvlZ-2" target="CFuLUNAaXIAf-ssiRvlZ-14" edge="1">
          <mxGeometry relative="1" as="geometry" />
        </mxCell>
        <mxCell id="CFuLUNAaXIAf-ssiRvlZ-21" style="edgeStyle=orthogonalEdgeStyle;rounded=0;orthogonalLoop=1;jettySize=auto;html=1;entryX=0;entryY=0.5;entryDx=0;entryDy=0;exitX=1;exitY=0.207;exitDx=0;exitDy=0;exitPerimeter=0;" parent="1" source="CFuLUNAaXIAf-ssiRvlZ-2" target="CFuLUNAaXIAf-ssiRvlZ-15" edge="1">
          <mxGeometry relative="1" as="geometry">
            <mxPoint x="430" y="253" as="sourcePoint" />
          </mxGeometry>
        </mxCell>
        <mxCell id="CFuLUNAaXIAf-ssiRvlZ-22" style="edgeStyle=orthogonalEdgeStyle;rounded=0;orthogonalLoop=1;jettySize=auto;html=1;exitX=0.992;exitY=0.353;exitDx=0;exitDy=0;entryX=0;entryY=0.5;entryDx=0;entryDy=0;exitPerimeter=0;" parent="1" source="CFuLUNAaXIAf-ssiRvlZ-2" target="CFuLUNAaXIAf-ssiRvlZ-16" edge="1">
          <mxGeometry relative="1" as="geometry" />
        </mxCell>
        <mxCell id="CFuLUNAaXIAf-ssiRvlZ-28" style="edgeStyle=orthogonalEdgeStyle;rounded=0;orthogonalLoop=1;jettySize=auto;html=1;exitX=1.001;exitY=0.946;exitDx=0;exitDy=0;entryX=0;entryY=0.5;entryDx=0;entryDy=0;exitPerimeter=0;" parent="1" source="CFuLUNAaXIAf-ssiRvlZ-2" target="CFuLUNAaXIAf-ssiRvlZ-19" edge="1">
          <mxGeometry relative="1" as="geometry" />
        </mxCell>
        <mxCell id="CFuLUNAaXIAf-ssiRvlZ-29" style="edgeStyle=orthogonalEdgeStyle;rounded=0;orthogonalLoop=1;jettySize=auto;html=1;exitX=0.994;exitY=0.506;exitDx=0;exitDy=0;entryX=0;entryY=0.5;entryDx=0;entryDy=0;exitPerimeter=0;" parent="1" source="CFuLUNAaXIAf-ssiRvlZ-2" target="CFuLUNAaXIAf-ssiRvlZ-17" edge="1">
          <mxGeometry relative="1" as="geometry" />
        </mxCell>
        <mxCell id="CFuLUNAaXIAf-ssiRvlZ-30" style="edgeStyle=orthogonalEdgeStyle;rounded=0;orthogonalLoop=1;jettySize=auto;html=1;exitX=1.005;exitY=0.655;exitDx=0;exitDy=0;entryX=0;entryY=0.5;entryDx=0;entryDy=0;exitPerimeter=0;" parent="1" source="CFuLUNAaXIAf-ssiRvlZ-2" target="CFuLUNAaXIAf-ssiRvlZ-18" edge="1">
          <mxGeometry relative="1" as="geometry" />
        </mxCell>
        <mxCell id="CFuLUNAaXIAf-ssiRvlZ-2" value="AXI Fabric" style="rounded=0;whiteSpace=wrap;html=1;" parent="1" vertex="1">
          <mxGeometry x="300" y="160" width="120" height="450" as="geometry" />
        </mxCell>
        <mxCell id="CFuLUNAaXIAf-ssiRvlZ-3" value="SocMgmt AXI LT Target" style="endArrow=classic;html=1;rounded=0;endWidth=20;strokeWidth=6;" parent="1" target="CFuLUNAaXIAf-ssiRvlZ-2" edge="1">
          <mxGeometry x="-0.3846" y="25" width="50" height="50" relative="1" as="geometry">
            <mxPoint x="40" y="385" as="sourcePoint" />
            <mxPoint x="140" y="310" as="targetPoint" />
            <mxPoint as="offset" />
          </mxGeometry>
        </mxCell>
        <mxCell id="CFuLUNAaXIAf-ssiRvlZ-7" value="&amp;nbsp;SocMgmt AXI LT Init&amp;nbsp;" style="edgeStyle=orthogonalEdgeStyle;rounded=0;orthogonalLoop=1;jettySize=auto;html=1;exitX=1;exitY=0.25;exitDx=0;exitDy=0;strokeWidth=4;" parent="1" source="CFuLUNAaXIAf-ssiRvlZ-5" edge="1">
          <mxGeometry x="0.8555" y="20" relative="1" as="geometry">
            <mxPoint x="50" y="120" as="targetPoint" />
            <Array as="points">
              <mxPoint x="690" y="503" />
              <mxPoint x="760" y="503" />
              <mxPoint x="760" y="120" />
            </Array>
            <mxPoint as="offset" />
          </mxGeometry>
        </mxCell>
        <mxCell id="CFuLUNAaXIAf-ssiRvlZ-5" value="Debugger" style="rounded=0;whiteSpace=wrap;html=1;" parent="1" vertex="1">
          <mxGeometry x="590" y="493" width="100" height="50" as="geometry" />
        </mxCell>
        <mxCell id="CFuLUNAaXIAf-ssiRvlZ-8" value="RoT KSE" style="rounded=0;whiteSpace=wrap;html=1;" parent="1" vertex="1">
          <mxGeometry x="590" y="160" width="100" height="50" as="geometry" />
        </mxCell>
        <mxCell id="CFuLUNAaXIAf-ssiRvlZ-9" value="RoT AO/OTP" style="rounded=0;whiteSpace=wrap;html=1;" parent="1" vertex="1">
          <mxGeometry x="590" y="227" width="100" height="50" as="geometry" />
        </mxCell>
        <mxCell id="CFuLUNAaXIAf-ssiRvlZ-10" value="RTC" style="rounded=0;whiteSpace=wrap;html=1;" parent="1" vertex="1">
          <mxGeometry x="590" y="360" width="100" height="50" as="geometry" />
        </mxCell>
        <mxCell id="CFuLUNAaXIAf-ssiRvlZ-11" value="TMS" style="rounded=0;whiteSpace=wrap;html=1;" parent="1" vertex="1">
          <mxGeometry x="590" y="293" width="100" height="50" as="geometry" />
        </mxCell>
        <mxCell id="CFuLUNAaXIAf-ssiRvlZ-12" value="WDT" style="rounded=0;whiteSpace=wrap;html=1;" parent="1" vertex="1">
          <mxGeometry x="590" y="427" width="100" height="50" as="geometry" />
        </mxCell>
        <mxCell id="CFuLUNAaXIAf-ssiRvlZ-13" value="MBIST" style="rounded=0;whiteSpace=wrap;html=1;" parent="1" vertex="1">
          <mxGeometry x="590" y="560" width="100" height="50" as="geometry" />
        </mxCell>
        <mxCell id="CFuLUNAaXIAf-ssiRvlZ-24" style="edgeStyle=orthogonalEdgeStyle;rounded=0;orthogonalLoop=1;jettySize=auto;html=1;exitX=1;exitY=0.5;exitDx=0;exitDy=0;entryX=0;entryY=0.5;entryDx=0;entryDy=0;" parent="1" source="CFuLUNAaXIAf-ssiRvlZ-14" target="CFuLUNAaXIAf-ssiRvlZ-8" edge="1">
          <mxGeometry relative="1" as="geometry" />
        </mxCell>
        <mxCell id="CFuLUNAaXIAf-ssiRvlZ-14" value="AXI2AHB" style="rounded=0;whiteSpace=wrap;html=1;fillColor=#ffe6cc;strokeColor=#d79b00;" parent="1" vertex="1">
          <mxGeometry x="490" y="172.5" width="60" height="25" as="geometry" />
        </mxCell>
        <mxCell id="CFuLUNAaXIAf-ssiRvlZ-23" style="edgeStyle=orthogonalEdgeStyle;rounded=0;orthogonalLoop=1;jettySize=auto;html=1;exitX=1;exitY=0.25;exitDx=0;exitDy=0;entryX=0;entryY=0.5;entryDx=0;entryDy=0;" parent="1" source="CFuLUNAaXIAf-ssiRvlZ-15" target="CFuLUNAaXIAf-ssiRvlZ-9" edge="1">
          <mxGeometry relative="1" as="geometry" />
        </mxCell>
        <mxCell id="CFuLUNAaXIAf-ssiRvlZ-15" value="AXI2APB" style="rounded=0;whiteSpace=wrap;html=1;fillColor=#dae8fc;strokeColor=#6c8ebf;" parent="1" vertex="1">
          <mxGeometry x="490" y="240" width="60" height="25" as="geometry" />
        </mxCell>
        <mxCell id="CFuLUNAaXIAf-ssiRvlZ-25" style="edgeStyle=orthogonalEdgeStyle;rounded=0;orthogonalLoop=1;jettySize=auto;html=1;exitX=1;exitY=0.5;exitDx=0;exitDy=0;entryX=0;entryY=0.5;entryDx=0;entryDy=0;" parent="1" source="CFuLUNAaXIAf-ssiRvlZ-16" target="CFuLUNAaXIAf-ssiRvlZ-11" edge="1">
          <mxGeometry relative="1" as="geometry" />
        </mxCell>
        <mxCell id="CFuLUNAaXIAf-ssiRvlZ-16" value="AXI2APB" style="rounded=0;whiteSpace=wrap;html=1;fillColor=#dae8fc;strokeColor=#6c8ebf;" parent="1" vertex="1">
          <mxGeometry x="490" y="305.5" width="60" height="25" as="geometry" />
        </mxCell>
        <mxCell id="CFuLUNAaXIAf-ssiRvlZ-26" style="edgeStyle=orthogonalEdgeStyle;rounded=0;orthogonalLoop=1;jettySize=auto;html=1;exitX=1;exitY=0.5;exitDx=0;exitDy=0;entryX=0;entryY=0.5;entryDx=0;entryDy=0;" parent="1" source="CFuLUNAaXIAf-ssiRvlZ-17" target="CFuLUNAaXIAf-ssiRvlZ-10" edge="1">
          <mxGeometry relative="1" as="geometry" />
        </mxCell>
        <mxCell id="CFuLUNAaXIAf-ssiRvlZ-17" value="AXI2APB" style="rounded=0;whiteSpace=wrap;html=1;fillColor=#dae8fc;strokeColor=#6c8ebf;" parent="1" vertex="1">
          <mxGeometry x="490" y="375" width="60" height="25" as="geometry" />
        </mxCell>
        <mxCell id="CFuLUNAaXIAf-ssiRvlZ-27" style="edgeStyle=orthogonalEdgeStyle;rounded=0;orthogonalLoop=1;jettySize=auto;html=1;exitX=1;exitY=0.5;exitDx=0;exitDy=0;entryX=0;entryY=0.5;entryDx=0;entryDy=0;" parent="1" source="CFuLUNAaXIAf-ssiRvlZ-18" target="CFuLUNAaXIAf-ssiRvlZ-12" edge="1">
          <mxGeometry relative="1" as="geometry" />
        </mxCell>
        <mxCell id="CFuLUNAaXIAf-ssiRvlZ-18" value="AXI2APB" style="rounded=0;whiteSpace=wrap;html=1;fillColor=#dae8fc;strokeColor=#6c8ebf;" parent="1" vertex="1">
          <mxGeometry x="490" y="442.5" width="60" height="25" as="geometry" />
        </mxCell>
        <mxCell id="CFuLUNAaXIAf-ssiRvlZ-31" style="edgeStyle=orthogonalEdgeStyle;rounded=0;orthogonalLoop=1;jettySize=auto;html=1;exitX=1;exitY=0.5;exitDx=0;exitDy=0;entryX=0;entryY=0.5;entryDx=0;entryDy=0;" parent="1" source="CFuLUNAaXIAf-ssiRvlZ-19" target="CFuLUNAaXIAf-ssiRvlZ-13" edge="1">
          <mxGeometry relative="1" as="geometry" />
        </mxCell>
        <mxCell id="CFuLUNAaXIAf-ssiRvlZ-19" value="AXI2APB" style="rounded=0;whiteSpace=wrap;html=1;fillColor=#dae8fc;strokeColor=#6c8ebf;" parent="1" vertex="1">
          <mxGeometry x="490" y="572.5" width="60" height="25" as="geometry" />
        </mxCell>
      </root>
    </mxGraphModel>
  </diagram>
  <diagram id="8yg1g_gP3WT4OLbqd5GK" name="Page-2">
    <mxGraphModel dx="1314" dy="1116" grid="1" gridSize="10" guides="1" tooltips="1" connect="1" arrows="1" fold="1" page="1" pageScale="1" pageWidth="850" pageHeight="1100" math="0" shadow="0">
      <root>
        <mxCell id="0" />
        <mxCell id="1" parent="0" />
      </root>
    </mxGraphModel>
  </diagram>
</mxfile>
